<svg width="218" height="79" viewBox="0 0 218 79" fill="none" xmlns="http://www.w3.org/2000/svg">
<path d="M37.92 15.008H41.896L37.64 35H33.692L37.92 15.008ZM44.3261 24.92C44.4568 24.0053 44.7368 23.2493 45.1661 22.652C45.5954 22.036 46.1181 21.5413 46.7341 21.168C47.3501 20.7947 48.0408 20.5333 48.8061 20.384C49.5714 20.216 50.3648 20.132 51.1861 20.132C51.8394 20.132 52.5208 20.1787 53.2301 20.272C53.9394 20.3653 54.5928 20.552 55.1901 20.832C55.7874 21.0933 56.2728 21.476 56.6461 21.98C57.0381 22.4653 57.2248 23.1187 57.2061 23.94C57.2061 24.6307 57.1034 25.4427 56.8981 26.376L55.6101 32.2C55.5354 32.4613 55.4794 32.788 55.4421 33.18C55.4234 33.5533 55.4141 33.88 55.4141 34.16C55.4141 34.4027 55.4608 34.6827 55.5541 35H51.5781V33.572C51.0368 34.188 50.3741 34.6453 49.5901 34.944C48.8061 35.224 47.9941 35.364 47.1541 35.364C46.3701 35.364 45.6794 35.2613 45.0821 35.056C44.5034 34.8507 44.0181 34.58 43.6261 34.244C43.2341 33.8893 42.9448 33.488 42.7581 33.04C42.5714 32.5733 42.4781 32.088 42.4781 31.584C42.4781 30.184 42.9541 29.064 43.9061 28.224C44.8768 27.384 46.2394 26.8613 47.9941 26.656C48.9274 26.544 49.7394 26.46 50.4301 26.404C51.1208 26.348 51.6901 26.264 52.1381 26.152C52.6048 26.0213 52.9501 25.844 53.1741 25.62C53.3981 25.3773 53.5101 25.0227 53.5101 24.556C53.5101 24.1827 53.4261 23.884 53.2581 23.66C53.0901 23.436 52.8754 23.2587 52.6141 23.128C52.3714 22.9973 52.1008 22.9133 51.8021 22.876C51.5221 22.82 51.2514 22.792 50.9901 22.792C50.2808 22.792 49.6461 22.9693 49.0861 23.324C48.5261 23.66 48.1808 24.192 48.0501 24.92H44.3261ZM52.7261 28.056C52.2221 28.3547 51.6808 28.5413 51.1021 28.616C50.5234 28.672 49.9448 28.7187 49.3661 28.756C48.9928 28.7933 48.6288 28.8587 48.2741 28.952C47.9194 29.0267 47.6021 29.148 47.3221 29.316C47.0608 29.484 46.8461 29.7173 46.6781 30.016C46.5101 30.296 46.4261 30.66 46.4261 31.108C46.4261 31.6493 46.6408 32.06 47.0701 32.34C47.5181 32.6013 48.0314 32.732 48.6101 32.732C49.2261 32.732 49.7394 32.6387 50.1501 32.452C50.5794 32.2467 50.9341 31.9947 51.2141 31.696C51.5128 31.3787 51.7461 31.024 51.9141 30.632C52.0821 30.24 52.2221 29.848 52.3341 29.456L52.7261 28.056ZM62.8122 20.524H66.6202L66.1722 22.568H66.2282C66.8256 21.728 67.5536 21.112 68.4122 20.72C69.2709 20.328 70.2322 20.132 71.2962 20.132C72.1922 20.132 72.9576 20.328 73.5922 20.72C74.2269 21.112 74.6282 21.756 74.7962 22.652C75.0389 22.2787 75.3469 21.9427 75.7202 21.644C76.0936 21.3267 76.4949 21.056 76.9242 20.832C77.3536 20.608 77.8016 20.44 78.2682 20.328C78.7536 20.1973 79.2296 20.132 79.6962 20.132C80.2562 20.132 80.7976 20.2067 81.3202 20.356C81.8616 20.5053 82.3376 20.7293 82.7482 21.028C83.1589 21.3267 83.4856 21.7093 83.7282 22.176C83.9709 22.6427 84.0922 23.184 84.0922 23.8C84.0922 24.248 84.0456 24.7053 83.9522 25.172C83.8589 25.62 83.7656 26.0587 83.6722 26.488L81.8802 35H77.9042L79.8082 25.844C79.8829 25.4707 79.9202 25.1253 79.9202 24.808C79.9202 24.3787 79.7522 24.0147 79.4162 23.716C79.0989 23.4173 78.6882 23.268 78.1842 23.268C77.6616 23.268 77.1856 23.3987 76.7562 23.66C76.3456 23.9027 75.9816 24.22 75.6642 24.612C75.3656 24.9853 75.1136 25.4053 74.9082 25.872C74.7029 26.3387 74.5536 26.796 74.4602 27.244L72.8362 35H68.8322L70.7362 25.844C70.8109 25.4707 70.8482 25.1253 70.8482 24.808C70.8482 24.3787 70.6802 24.0147 70.3442 23.716C70.0269 23.4173 69.6162 23.268 69.1122 23.268C68.5896 23.268 68.1136 23.3987 67.6842 23.66C67.2736 23.9027 66.9096 24.22 66.5922 24.612C66.2936 24.9853 66.0416 25.4053 65.8362 25.872C65.6309 26.3387 65.4816 26.796 65.3882 27.244L63.7642 35H59.8162L62.8122 20.524ZM88.6066 24.92C88.7372 24.0053 89.0172 23.2493 89.4466 22.652C89.8759 22.036 90.3986 21.5413 91.0146 21.168C91.6306 20.7947 92.3212 20.5333 93.0866 20.384C93.8519 20.216 94.6452 20.132 95.4666 20.132C96.1199 20.132 96.8012 20.1787 97.5106 20.272C98.2199 20.3653 98.8732 20.552 99.4706 20.832C100.068 21.0933 100.553 21.476 100.927 21.98C101.319 22.4653 101.505 23.1187 101.487 23.94C101.487 24.6307 101.384 25.4427 101.179 26.376L99.8906 32.2C99.8159 32.4613 99.7599 32.788 99.7226 33.18C99.7039 33.5533 99.6946 33.88 99.6946 34.16C99.6946 34.4027 99.7412 34.6827 99.8346 35H95.8586V33.572C95.3172 34.188 94.6546 34.6453 93.8706 34.944C93.0866 35.224 92.2746 35.364 91.4346 35.364C90.6506 35.364 89.9599 35.2613 89.3626 35.056C88.7839 34.8507 88.2986 34.58 87.9066 34.244C87.5146 33.8893 87.2252 33.488 87.0386 33.04C86.8519 32.5733 86.7586 32.088 86.7586 31.584C86.7586 30.184 87.2346 29.064 88.1866 28.224C89.1572 27.384 90.5199 26.8613 92.2746 26.656C93.2079 26.544 94.0199 26.46 94.7106 26.404C95.4012 26.348 95.9706 26.264 96.4186 26.152C96.8852 26.0213 97.2306 25.844 97.4546 25.62C97.6786 25.3773 97.7906 25.0227 97.7906 24.556C97.7906 24.1827 97.7066 23.884 97.5386 23.66C97.3706 23.436 97.1559 23.2587 96.8946 23.128C96.6519 22.9973 96.3812 22.9133 96.0826 22.876C95.8026 22.82 95.5319 22.792 95.2706 22.792C94.5612 22.792 93.9266 22.9693 93.3666 23.324C92.8066 23.66 92.4612 24.192 92.3306 24.92H88.6066ZM97.0066 28.056C96.5026 28.3547 95.9612 28.5413 95.3826 28.616C94.8039 28.672 94.2252 28.7187 93.6466 28.756C93.2732 28.7933 92.9092 28.8587 92.5546 28.952C92.1999 29.0267 91.8826 29.148 91.6026 29.316C91.3412 29.484 91.1266 29.7173 90.9586 30.016C90.7906 30.296 90.7066 30.66 90.7066 31.108C90.7066 31.6493 90.9212 32.06 91.3506 32.34C91.7986 32.6013 92.3119 32.732 92.8906 32.732C93.5066 32.732 94.0199 32.6387 94.4306 32.452C94.8599 32.2467 95.2146 31.9947 95.4946 31.696C95.7932 31.3787 96.0266 31.024 96.1946 30.632C96.3626 30.24 96.5026 29.848 96.6146 29.456L97.0066 28.056ZM111.601 18.284H107.597L108.325 15.008H112.329L111.601 18.284ZM107.149 20.524H111.153L108.073 35H104.097L107.149 20.524ZM115.739 20.524H119.547L119.099 22.54H119.155C120.443 20.9347 122.132 20.132 124.223 20.132C127.041 20.132 128.451 21.4293 128.451 24.024C128.451 24.1733 128.432 24.3693 128.395 24.612C128.357 24.836 128.311 25.0693 128.255 25.312C128.217 25.5547 128.171 25.788 128.115 26.012C128.077 26.2173 128.049 26.3853 128.031 26.516L126.239 35H122.263L124.027 26.516C124.064 26.292 124.111 25.9933 124.167 25.62C124.241 25.2467 124.279 24.9573 124.279 24.752C124.279 24.3227 124.073 23.968 123.663 23.688C123.271 23.408 122.841 23.268 122.375 23.268C121.777 23.268 121.245 23.3893 120.779 23.632C120.331 23.856 119.939 24.1547 119.603 24.528C119.285 24.9013 119.015 25.3307 118.791 25.816C118.585 26.3013 118.427 26.796 118.315 27.3L116.691 35H112.743L115.739 20.524ZM138.848 35H134.312L132.408 20.524H136.496L137.392 30.828H137.448L142.572 20.524H146.772L138.848 35ZM158.66 26.208C158.66 25.8347 158.622 25.4707 158.548 25.116C158.492 24.7427 158.37 24.4067 158.184 24.108C157.997 23.8093 157.726 23.576 157.372 23.408C157.017 23.2213 156.55 23.128 155.972 23.128C155.412 23.128 154.917 23.212 154.488 23.38C154.058 23.548 153.685 23.772 153.368 24.052C153.05 24.332 152.78 24.6587 152.556 25.032C152.35 25.4053 152.173 25.7973 152.024 26.208H158.66ZM151.604 28.728C151.585 28.8213 151.576 28.9053 151.576 28.98C151.576 29.0547 151.576 29.1293 151.576 29.204V29.568C151.576 30.408 151.837 31.0893 152.36 31.612C152.882 32.1347 153.685 32.396 154.768 32.396C155.16 32.396 155.505 32.34 155.804 32.228C156.121 32.0973 156.392 31.9387 156.616 31.752C156.858 31.5653 157.064 31.3507 157.232 31.108C157.418 30.8653 157.586 30.632 157.736 30.408H161.712C161.394 31.2293 161.021 31.948 160.592 32.564C160.162 33.18 159.649 33.7027 159.052 34.132C158.454 34.5427 157.754 34.8507 156.952 35.056C156.168 35.2613 155.253 35.364 154.208 35.364C153.237 35.364 152.35 35.2333 151.548 34.972C150.764 34.7107 150.092 34.3187 149.532 33.796C148.972 33.2547 148.533 32.592 148.216 31.808C147.917 31.024 147.768 30.1093 147.768 29.064C147.768 27.9067 147.954 26.796 148.328 25.732C148.701 24.6493 149.224 23.6973 149.896 22.876C150.586 22.036 151.426 21.3733 152.416 20.888C153.405 20.384 154.516 20.132 155.748 20.132C156.756 20.132 157.67 20.2627 158.492 20.524C159.332 20.7853 160.041 21.1867 160.62 21.728C161.217 22.2507 161.674 22.9133 161.992 23.716C162.328 24.5 162.496 25.4147 162.496 26.46C162.496 27.1693 162.421 27.9253 162.272 28.728H151.604ZM167.654 20.524H171.434L170.846 23.128L170.902 23.184C171.35 22.176 172.022 21.42 172.918 20.916C173.832 20.3933 174.822 20.132 175.886 20.132C176.296 20.132 176.707 20.16 177.118 20.216L176.306 24.08C176.026 24.024 175.746 23.968 175.466 23.912C175.186 23.856 174.906 23.828 174.626 23.828C173.86 23.828 173.207 23.9587 172.666 24.22C172.143 24.4813 171.695 24.836 171.322 25.284C170.967 25.732 170.678 26.2453 170.454 26.824C170.248 27.384 170.08 27.972 169.95 28.588L168.606 35H164.658L167.654 20.524ZM185.032 20.524H187.888L187.272 23.184H184.444L182.96 30.38C182.923 30.5293 182.895 30.6693 182.876 30.8C182.858 30.912 182.848 30.996 182.848 31.052C182.848 31.3133 182.886 31.5187 182.96 31.668C183.054 31.7987 183.166 31.9013 183.296 31.976C183.427 32.0507 183.567 32.0973 183.716 32.116C183.884 32.116 184.043 32.116 184.192 32.116C184.678 32.116 185.154 32.088 185.62 32.032L184.948 35.084C184.538 35.1213 184.127 35.1493 183.716 35.168C183.306 35.2053 182.886 35.224 182.456 35.224C181.99 35.224 181.523 35.1773 181.056 35.084C180.608 35.0093 180.198 34.8693 179.824 34.664C179.47 34.44 179.18 34.1413 178.956 33.768C178.751 33.3947 178.658 32.9093 178.676 32.312C178.676 32.1253 178.695 31.92 178.732 31.696C178.77 31.4533 178.816 31.2013 178.872 30.94L180.496 23.184H177.892L178.508 20.524H181.056L181.952 16.128H185.928L185.032 20.524ZM200.184 26.208C200.184 25.8347 200.146 25.4707 200.072 25.116C200.016 24.7427 199.894 24.4067 199.708 24.108C199.521 23.8093 199.25 23.576 198.896 23.408C198.541 23.2213 198.074 23.128 197.496 23.128C196.936 23.128 196.441 23.212 196.012 23.38C195.582 23.548 195.209 23.772 194.892 24.052C194.574 24.332 194.304 24.6587 194.08 25.032C193.874 25.4053 193.697 25.7973 193.548 26.208H200.184ZM193.128 28.728C193.109 28.8213 193.1 28.9053 193.1 28.98C193.1 29.0547 193.1 29.1293 193.1 29.204V29.568C193.1 30.408 193.361 31.0893 193.884 31.612C194.406 32.1347 195.209 32.396 196.292 32.396C196.684 32.396 197.029 32.34 197.328 32.228C197.645 32.0973 197.916 31.9387 198.14 31.752C198.382 31.5653 198.588 31.3507 198.756 31.108C198.942 30.8653 199.11 30.632 199.26 30.408H203.236C202.918 31.2293 202.545 31.948 202.116 32.564C201.686 33.18 201.173 33.7027 200.576 34.132C199.978 34.5427 199.278 34.8507 198.476 35.056C197.692 35.2613 196.777 35.364 195.732 35.364C194.761 35.364 193.874 35.2333 193.072 34.972C192.288 34.7107 191.616 34.3187 191.056 33.796C190.496 33.2547 190.057 32.592 189.74 31.808C189.441 31.024 189.292 30.1093 189.292 29.064C189.292 27.9067 189.478 26.796 189.852 25.732C190.225 24.6493 190.748 23.6973 191.42 22.876C192.11 22.036 192.95 21.3733 193.94 20.888C194.929 20.384 196.04 20.132 197.272 20.132C198.28 20.132 199.194 20.2627 200.016 20.524C200.856 20.7853 201.565 21.1867 202.144 21.728C202.741 22.2507 203.198 22.9133 203.516 23.716C203.852 24.5 204.02 25.4147 204.02 26.46C204.02 27.1693 203.945 27.9253 203.796 28.728H193.128Z" fill="#111111"/>
<path d="M19.236 14.678H23.762L5.41 60.992H0.946L19.236 14.678ZM28.7225 14.678H33.2485L14.8965 60.992H10.4325L28.7225 14.678Z" fill="#23BE63"/>
<path d="M22.56 55.688H26.984L26.06 60H21.664L22.56 55.688ZM41.049 49.752C41.0303 49.136 40.8436 48.66 40.489 48.324C40.153 47.9693 39.593 47.792 38.809 47.792C38.0996 47.792 37.5116 47.904 37.045 48.128C36.597 48.3333 36.373 48.6973 36.373 49.22C36.373 49.5373 36.5036 49.808 36.765 50.032C37.045 50.256 37.521 50.4707 38.193 50.676L40.181 51.32C40.7223 51.488 41.217 51.684 41.665 51.908C42.1316 52.132 42.533 52.412 42.869 52.748C43.2236 53.0653 43.4943 53.448 43.681 53.896C43.8863 54.344 43.989 54.8667 43.989 55.464C43.989 56.36 43.7836 57.1253 43.373 57.76C42.981 58.376 42.4583 58.88 41.805 59.272C41.1516 59.664 40.4143 59.944 39.593 60.112C38.7716 60.28 37.941 60.364 37.101 60.364C36.3916 60.364 35.673 60.2893 34.945 60.14C34.217 59.9907 33.5543 59.748 32.957 59.412C32.3783 59.0573 31.9023 58.6 31.529 58.04C31.1556 57.4613 30.969 56.7427 30.969 55.884V55.296H34.637V55.772C34.637 56.108 34.721 56.3973 34.889 56.64C35.057 56.8827 35.2716 57.088 35.533 57.256C35.813 57.4053 36.121 57.5267 36.457 57.62C36.8116 57.6947 37.157 57.732 37.493 57.732C37.7916 57.732 38.0903 57.704 38.389 57.648C38.6876 57.592 38.9583 57.4987 39.201 57.368C39.4436 57.2187 39.6396 57.0413 39.789 56.836C39.9383 56.612 40.013 56.332 40.013 55.996C40.013 55.492 39.8823 55.1373 39.621 54.932C39.3596 54.7267 39.0143 54.5493 38.585 54.4L35.533 53.42C35.029 53.252 34.581 53.0747 34.189 52.888C33.8156 52.7013 33.489 52.468 33.209 52.188C32.9476 51.908 32.7423 51.572 32.593 51.18C32.4623 50.788 32.397 50.3027 32.397 49.724C32.397 48.8653 32.593 48.1467 32.985 47.568C33.3956 46.9893 33.9183 46.5227 34.553 46.168C35.1876 45.7947 35.8783 45.5333 36.625 45.384C37.3903 45.216 38.1183 45.132 38.809 45.132C39.593 45.132 40.349 45.1973 41.077 45.328C41.805 45.4587 42.4396 45.7013 42.981 46.056C43.541 46.392 43.9796 46.8587 44.297 47.456C44.6143 48.0533 44.7636 48.8187 44.745 49.752H41.049ZM54.8965 45.524H57.7525L57.1365 48.184H54.3085L52.8245 55.38C52.7872 55.5293 52.7592 55.6693 52.7405 55.8C52.7218 55.912 52.7125 55.996 52.7125 56.052C52.7125 56.3133 52.7498 56.5187 52.8245 56.668C52.9178 56.7987 53.0298 56.9013 53.1605 56.976C53.2912 57.0507 53.4312 57.0973 53.5805 57.116C53.7485 57.116 53.9072 57.116 54.0565 57.116C54.5418 57.116 55.0178 57.088 55.4845 57.032L54.8125 60.084C54.4018 60.1213 53.9912 60.1493 53.5805 60.168C53.1698 60.2053 52.7498 60.224 52.3205 60.224C51.8538 60.224 51.3872 60.1773 50.9205 60.084C50.4725 60.0093 50.0618 59.8693 49.6885 59.664C49.3338 59.44 49.0445 59.1413 48.8205 58.768C48.6152 58.3947 48.5218 57.9093 48.5405 57.312C48.5405 57.1253 48.5592 56.92 48.5965 56.696C48.6338 56.4533 48.6805 56.2013 48.7365 55.94L50.3605 48.184H47.7565L48.3725 45.524H50.9205L51.8165 41.128H55.7925L54.8965 45.524ZM72.2598 60H68.4518L68.8998 57.984H68.8438C67.5558 59.5707 65.8664 60.364 63.7758 60.364C60.9571 60.364 59.5478 59.076 59.5478 56.5C59.5478 56.3507 59.5571 56.164 59.5758 55.94C59.6131 55.6973 59.6504 55.4547 59.6878 55.212C59.7438 54.9693 59.7904 54.7453 59.8278 54.54C59.8838 54.316 59.9304 54.1387 59.9678 54.008L61.7598 45.524H65.7358L63.9718 54.008C63.9344 54.12 63.8971 54.26 63.8598 54.428C63.8411 54.5773 63.8131 54.736 63.7758 54.904C63.7571 55.072 63.7384 55.24 63.7198 55.408C63.7198 55.5573 63.7198 55.6787 63.7198 55.772C63.7198 56.2013 63.9158 56.556 64.3078 56.836C64.7184 57.116 65.1571 57.256 65.6238 57.256C66.2211 57.256 66.7438 57.144 67.1918 56.92C67.6584 56.6773 68.0504 56.3693 68.3678 55.996C68.7038 55.6227 68.9744 55.1933 69.1798 54.708C69.4038 54.2227 69.5718 53.728 69.6838 53.224L71.3078 45.524H75.2838L72.2598 60ZM85.989 48.128C85.2423 48.128 84.589 48.324 84.029 48.716C83.4876 49.108 83.0396 49.6027 82.685 50.2C82.3303 50.7973 82.069 51.4507 81.901 52.16C81.733 52.8693 81.649 53.5413 81.649 54.176C81.649 54.6053 81.705 55.016 81.817 55.408C81.9476 55.8 82.125 56.1453 82.349 56.444C82.5916 56.724 82.8903 56.9573 83.245 57.144C83.5996 57.312 84.0103 57.396 84.477 57.396C85.2236 57.396 85.8676 57.2 86.409 56.808C86.9503 56.3973 87.3983 55.884 87.753 55.268C88.1263 54.652 88.397 53.9893 88.565 53.28C88.7516 52.552 88.845 51.88 88.845 51.264C88.845 50.312 88.6116 49.556 88.145 48.996C87.6783 48.4173 86.9596 48.128 85.989 48.128ZM87.585 58.208L87.529 58.152C87.081 58.936 86.465 59.5053 85.681 59.86C84.9156 60.196 84.085 60.364 83.189 60.364C81.4343 60.364 80.0716 59.86 79.101 58.852C78.149 57.8253 77.673 56.4347 77.673 54.68C77.673 53.4853 77.8316 52.3187 78.149 51.18C78.4663 50.0413 78.9516 49.024 79.605 48.128C80.2583 47.232 81.0796 46.5133 82.069 45.972C83.0583 45.412 84.225 45.132 85.569 45.132C86.409 45.132 87.2116 45.3187 87.977 45.692C88.761 46.0653 89.3116 46.6533 89.629 47.456H89.685L91.281 40.008H95.257L91.029 60H87.193L87.585 58.208ZM103.106 43.284H99.1022L99.8302 40.008H103.834L103.106 43.284ZM98.6542 45.524H102.658L99.5782 60H95.6022L98.6542 45.524ZM108.812 54.148C108.812 54.5773 108.868 54.988 108.98 55.38C109.111 55.772 109.298 56.1173 109.54 56.416C109.783 56.7147 110.082 56.9573 110.436 57.144C110.791 57.312 111.202 57.396 111.668 57.396C112.415 57.396 113.05 57.2 113.572 56.808C114.114 56.3973 114.552 55.8933 114.888 55.296C115.243 54.68 115.504 54.0173 115.672 53.308C115.84 52.5987 115.924 51.936 115.924 51.32C115.924 50.3493 115.7 49.5747 115.252 48.996C114.823 48.4173 114.076 48.128 113.012 48.128C112.284 48.128 111.65 48.3333 111.108 48.744C110.586 49.136 110.156 49.6307 109.82 50.228C109.484 50.8253 109.232 51.4787 109.064 52.188C108.896 52.8787 108.812 53.532 108.812 54.148ZM104.836 54.148C104.836 52.916 105.023 51.7587 105.396 50.676C105.788 49.5747 106.339 48.6133 107.048 47.792C107.776 46.9707 108.654 46.3267 109.68 45.86C110.707 45.3747 111.864 45.132 113.152 45.132C114.142 45.132 115.047 45.2627 115.868 45.524C116.708 45.7667 117.427 46.14 118.024 46.644C118.622 47.148 119.079 47.7827 119.396 48.548C119.732 49.3133 119.9 50.2187 119.9 51.264C119.9 52.5333 119.704 53.728 119.312 54.848C118.939 55.9493 118.388 56.9107 117.66 57.732C116.932 58.5533 116.046 59.1973 115 59.664C113.974 60.1307 112.798 60.364 111.472 60.364C109.456 60.364 107.842 59.8507 106.628 58.824C105.434 57.7787 104.836 56.22 104.836 54.148Z" fill="#23BE63"/>
</svg>
