<svg width="205" height="47" viewBox="0 0 205 47" fill="none" xmlns="http://www.w3.org/2000/svg">
<path d="M200.184 12.208C200.184 11.8347 200.146 11.4707 200.072 11.116C200.016 10.7427 199.894 10.4067 199.708 10.108C199.521 9.80933 199.25 9.576 198.896 9.408C198.541 9.22133 198.074 9.128 197.496 9.128C196.936 9.128 196.441 9.212 196.012 9.38C195.582 9.548 195.209 9.772 194.892 10.052C194.574 10.332 194.304 10.6587 194.08 11.032C193.874 11.4053 193.697 11.7973 193.548 12.208H200.184ZM193.128 14.728C193.109 14.8213 193.1 14.9053 193.1 14.98C193.1 15.0547 193.1 15.1293 193.1 15.204V15.568C193.1 16.408 193.361 17.0893 193.884 17.612C194.406 18.1347 195.209 18.396 196.292 18.396C196.684 18.396 197.029 18.34 197.328 18.228C197.645 18.0973 197.916 17.9387 198.14 17.752C198.382 17.5653 198.588 17.3507 198.756 17.108C198.942 16.8653 199.11 16.632 199.26 16.408H203.236C202.918 17.2293 202.545 17.948 202.116 18.564C201.686 19.18 201.173 19.7027 200.576 20.132C199.978 20.5427 199.278 20.8507 198.476 21.056C197.692 21.2613 196.777 21.364 195.732 21.364C194.761 21.364 193.874 21.2333 193.072 20.972C192.288 20.7107 191.616 20.3187 191.056 19.796C190.496 19.2547 190.057 18.592 189.74 17.808C189.441 17.024 189.292 16.1093 189.292 15.064C189.292 13.9067 189.478 12.796 189.852 11.732C190.225 10.6493 190.748 9.69733 191.42 8.876C192.11 8.036 192.95 7.37333 193.94 6.888C194.929 6.384 196.04 6.132 197.272 6.132C198.28 6.132 199.194 6.26267 200.016 6.524C200.856 6.78533 201.565 7.18667 202.144 7.728C202.741 8.25067 203.198 8.91333 203.516 9.716C203.852 10.5 204.02 11.4147 204.02 12.46C204.02 13.1693 203.945 13.9253 203.796 14.728H193.128Z" fill="#111111"/>
<path d="M185.032 6.524H187.888L187.272 9.184H184.444L182.96 16.38C182.923 16.5293 182.895 16.6693 182.876 16.8C182.858 16.912 182.848 16.996 182.848 17.052C182.848 17.3133 182.886 17.5187 182.96 17.668C183.054 17.7987 183.166 17.9013 183.296 17.976C183.427 18.0507 183.567 18.0973 183.716 18.116C183.884 18.116 184.043 18.116 184.192 18.116C184.678 18.116 185.154 18.088 185.62 18.032L184.948 21.084C184.538 21.1213 184.127 21.1493 183.716 21.168C183.306 21.2053 182.886 21.224 182.456 21.224C181.99 21.224 181.523 21.1773 181.056 21.084C180.608 21.0093 180.198 20.8693 179.824 20.664C179.47 20.44 179.18 20.1413 178.956 19.768C178.751 19.3947 178.658 18.9093 178.676 18.312C178.676 18.1253 178.695 17.92 178.732 17.696C178.77 17.4533 178.816 17.2013 178.872 16.94L180.496 9.184H177.892L178.508 6.524H181.056L181.952 2.128H185.928L185.032 6.524Z" fill="#111111"/>
<path d="M167.654 6.524H171.434L170.846 9.128L170.902 9.184C171.35 8.176 172.022 7.42 172.918 6.916C173.832 6.39333 174.822 6.132 175.886 6.132C176.296 6.132 176.707 6.16 177.118 6.216L176.306 10.08C176.026 10.024 175.746 9.968 175.466 9.912C175.186 9.856 174.906 9.828 174.626 9.828C173.86 9.828 173.207 9.95867 172.666 10.22C172.143 10.4813 171.695 10.836 171.322 11.284C170.967 11.732 170.678 12.2453 170.454 12.824C170.248 13.384 170.08 13.972 169.95 14.588L168.606 21H164.658L167.654 6.524Z" fill="#111111"/>
<path d="M158.66 12.208C158.66 11.8347 158.622 11.4707 158.548 11.116C158.492 10.7427 158.37 10.4067 158.184 10.108C157.997 9.80933 157.726 9.576 157.372 9.408C157.017 9.22133 156.55 9.128 155.972 9.128C155.412 9.128 154.917 9.212 154.488 9.38C154.058 9.548 153.685 9.772 153.368 10.052C153.05 10.332 152.78 10.6587 152.556 11.032C152.35 11.4053 152.173 11.7973 152.024 12.208H158.66ZM151.604 14.728C151.585 14.8213 151.576 14.9053 151.576 14.98C151.576 15.0547 151.576 15.1293 151.576 15.204V15.568C151.576 16.408 151.837 17.0893 152.36 17.612C152.882 18.1347 153.685 18.396 154.768 18.396C155.16 18.396 155.505 18.34 155.804 18.228C156.121 18.0973 156.392 17.9387 156.616 17.752C156.858 17.5653 157.064 17.3507 157.232 17.108C157.418 16.8653 157.586 16.632 157.736 16.408H161.712C161.394 17.2293 161.021 17.948 160.592 18.564C160.162 19.18 159.649 19.7027 159.052 20.132C158.454 20.5427 157.754 20.8507 156.952 21.056C156.168 21.2613 155.253 21.364 154.208 21.364C153.237 21.364 152.35 21.2333 151.548 20.972C150.764 20.7107 150.092 20.3187 149.532 19.796C148.972 19.2547 148.533 18.592 148.216 17.808C147.917 17.024 147.768 16.1093 147.768 15.064C147.768 13.9067 147.954 12.796 148.328 11.732C148.701 10.6493 149.224 9.69733 149.896 8.876C150.586 8.036 151.426 7.37333 152.416 6.888C153.405 6.384 154.516 6.132 155.748 6.132C156.756 6.132 157.67 6.26267 158.492 6.524C159.332 6.78533 160.041 7.18667 160.62 7.728C161.217 8.25067 161.674 8.91333 161.992 9.716C162.328 10.5 162.496 11.4147 162.496 12.46C162.496 13.1693 162.421 13.9253 162.272 14.728H151.604Z" fill="#111111"/>
<path d="M138.848 21H134.312L132.408 6.524H136.496L137.392 16.828H137.448L142.572 6.524H146.772L138.848 21Z" fill="#111111"/>
<path d="M115.739 6.524H119.547L119.099 8.54H119.155C120.443 6.93467 122.132 6.132 124.223 6.132C127.041 6.132 128.451 7.42933 128.451 10.024C128.451 10.1733 128.432 10.3693 128.395 10.612C128.357 10.836 128.311 11.0693 128.255 11.312C128.217 11.5547 128.171 11.788 128.115 12.012C128.077 12.2173 128.049 12.3853 128.031 12.516L126.239 21H122.263L124.027 12.516C124.064 12.292 124.111 11.9933 124.167 11.62C124.241 11.2467 124.279 10.9573 124.279 10.752C124.279 10.3227 124.073 9.968 123.663 9.688C123.271 9.408 122.841 9.268 122.375 9.268C121.777 9.268 121.245 9.38933 120.779 9.632C120.331 9.856 119.939 10.1547 119.603 10.528C119.285 10.9013 119.015 11.3307 118.791 11.816C118.585 12.3013 118.427 12.796 118.315 13.3L116.691 21H112.743L115.739 6.524Z" fill="#111111"/>
<path d="M111.601 4.284H107.597L108.325 1.008H112.329L111.601 4.284ZM107.149 6.524H111.153L108.073 21H104.097L107.149 6.524Z" fill="#111111"/>
<path d="M88.6066 10.92C88.7372 10.0053 89.0172 9.24933 89.4466 8.652C89.8759 8.036 90.3986 7.54133 91.0146 7.168C91.6306 6.79467 92.3212 6.53333 93.0866 6.384C93.8519 6.216 94.6452 6.132 95.4666 6.132C96.1199 6.132 96.8012 6.17867 97.5106 6.272C98.2199 6.36533 98.8732 6.552 99.4706 6.832C100.068 7.09333 100.553 7.476 100.927 7.98C101.319 8.46533 101.505 9.11867 101.487 9.94C101.487 10.6307 101.384 11.4427 101.179 12.376L99.8906 18.2C99.8159 18.4613 99.7599 18.788 99.7226 19.18C99.7039 19.5533 99.6946 19.88 99.6946 20.16C99.6946 20.4027 99.7412 20.6827 99.8346 21H95.8586V19.572C95.3172 20.188 94.6546 20.6453 93.8706 20.944C93.0866 21.224 92.2746 21.364 91.4346 21.364C90.6506 21.364 89.9599 21.2613 89.3626 21.056C88.7839 20.8507 88.2986 20.58 87.9066 20.244C87.5146 19.8893 87.2252 19.488 87.0386 19.04C86.8519 18.5733 86.7586 18.088 86.7586 17.584C86.7586 16.184 87.2346 15.064 88.1866 14.224C89.1572 13.384 90.5199 12.8613 92.2746 12.656C93.2079 12.544 94.0199 12.46 94.7106 12.404C95.4012 12.348 95.9706 12.264 96.4186 12.152C96.8852 12.0213 97.2306 11.844 97.4546 11.62C97.6786 11.3773 97.7906 11.0227 97.7906 10.556C97.7906 10.1827 97.7066 9.884 97.5386 9.66C97.3706 9.436 97.1559 9.25867 96.8946 9.128C96.6519 8.99733 96.3812 8.91333 96.0826 8.876C95.8026 8.82 95.5319 8.792 95.2706 8.792C94.5612 8.792 93.9266 8.96933 93.3666 9.324C92.8066 9.66 92.4612 10.192 92.3306 10.92H88.6066ZM97.0066 14.056C96.5026 14.3547 95.9612 14.5413 95.3826 14.616C94.8039 14.672 94.2252 14.7187 93.6466 14.756C93.2732 14.7933 92.9092 14.8587 92.5546 14.952C92.1999 15.0267 91.8826 15.148 91.6026 15.316C91.3412 15.484 91.1266 15.7173 90.9586 16.016C90.7906 16.296 90.7066 16.66 90.7066 17.108C90.7066 17.6493 90.9212 18.06 91.3506 18.34C91.7986 18.6013 92.3119 18.732 92.8906 18.732C93.5066 18.732 94.0199 18.6387 94.4306 18.452C94.8599 18.2467 95.2146 17.9947 95.4946 17.696C95.7932 17.3787 96.0266 17.024 96.1946 16.632C96.3626 16.24 96.5026 15.848 96.6146 15.456L97.0066 14.056Z" fill="#111111"/>
<path d="M62.8122 6.524H66.6202L66.1722 8.568H66.2282C66.8256 7.728 67.5536 7.112 68.4122 6.72C69.2709 6.328 70.2322 6.132 71.2962 6.132C72.1922 6.132 72.9576 6.328 73.5922 6.72C74.2269 7.112 74.6282 7.756 74.7962 8.652C75.0389 8.27867 75.3469 7.94267 75.7202 7.644C76.0936 7.32667 76.4949 7.056 76.9242 6.832C77.3536 6.608 77.8016 6.44 78.2682 6.328C78.7536 6.19733 79.2296 6.132 79.6962 6.132C80.2562 6.132 80.7976 6.20667 81.3202 6.356C81.8616 6.50533 82.3376 6.72933 82.7482 7.028C83.1589 7.32667 83.4856 7.70933 83.7282 8.176C83.9709 8.64267 84.0922 9.184 84.0922 9.8C84.0922 10.248 84.0456 10.7053 83.9522 11.172C83.8589 11.62 83.7656 12.0587 83.6722 12.488L81.8802 21H77.9042L79.8082 11.844C79.8829 11.4707 79.9202 11.1253 79.9202 10.808C79.9202 10.3787 79.7522 10.0147 79.4162 9.716C79.0989 9.41733 78.6882 9.268 78.1842 9.268C77.6616 9.268 77.1856 9.39867 76.7562 9.66C76.3456 9.90267 75.9816 10.22 75.6642 10.612C75.3656 10.9853 75.1136 11.4053 74.9082 11.872C74.7029 12.3387 74.5536 12.796 74.4602 13.244L72.8362 21H68.8322L70.7362 11.844C70.8109 11.4707 70.8482 11.1253 70.8482 10.808C70.8482 10.3787 70.6802 10.0147 70.3442 9.716C70.0269 9.41733 69.6162 9.268 69.1122 9.268C68.5896 9.268 68.1136 9.39867 67.6842 9.66C67.2736 9.90267 66.9096 10.22 66.5922 10.612C66.2936 10.9853 66.0416 11.4053 65.8362 11.872C65.6309 12.3387 65.4816 12.796 65.3882 13.244L63.7642 21H59.8162L62.8122 6.524Z" fill="#111111"/>
<path d="M44.3261 10.92C44.4568 10.0053 44.7368 9.24933 45.1661 8.652C45.5954 8.036 46.1181 7.54133 46.7341 7.168C47.3501 6.79467 48.0408 6.53333 48.8061 6.384C49.5714 6.216 50.3648 6.132 51.1861 6.132C51.8394 6.132 52.5208 6.17867 53.2301 6.272C53.9394 6.36533 54.5928 6.552 55.1901 6.832C55.7874 7.09333 56.2728 7.476 56.6461 7.98C57.0381 8.46533 57.2248 9.11867 57.2061 9.94C57.2061 10.6307 57.1034 11.4427 56.8981 12.376L55.6101 18.2C55.5354 18.4613 55.4794 18.788 55.4421 19.18C55.4234 19.5533 55.4141 19.88 55.4141 20.16C55.4141 20.4027 55.4608 20.6827 55.5541 21H51.5781V19.572C51.0368 20.188 50.3741 20.6453 49.5901 20.944C48.8061 21.224 47.9941 21.364 47.1541 21.364C46.3701 21.364 45.6794 21.2613 45.0821 21.056C44.5034 20.8507 44.0181 20.58 43.6261 20.244C43.2341 19.8893 42.9448 19.488 42.7581 19.04C42.5714 18.5733 42.4781 18.088 42.4781 17.584C42.4781 16.184 42.9541 15.064 43.9061 14.224C44.8768 13.384 46.2394 12.8613 47.9941 12.656C48.9274 12.544 49.7394 12.46 50.4301 12.404C51.1208 12.348 51.6901 12.264 52.1381 12.152C52.6048 12.0213 52.9501 11.844 53.1741 11.62C53.3981 11.3773 53.5101 11.0227 53.5101 10.556C53.5101 10.1827 53.4261 9.884 53.2581 9.66C53.0901 9.436 52.8754 9.25867 52.6141 9.128C52.3714 8.99733 52.1008 8.91333 51.8021 8.876C51.5221 8.82 51.2514 8.792 50.9901 8.792C50.2808 8.792 49.6461 8.96933 49.0861 9.324C48.5261 9.66 48.1808 10.192 48.0501 10.92H44.3261ZM52.7261 14.056C52.2221 14.3547 51.6808 14.5413 51.1021 14.616C50.5234 14.672 49.9448 14.7187 49.3661 14.756C48.9928 14.7933 48.6288 14.8587 48.2741 14.952C47.9194 15.0267 47.6021 15.148 47.3221 15.316C47.0608 15.484 46.8461 15.7173 46.6781 16.016C46.5101 16.296 46.4261 16.66 46.4261 17.108C46.4261 17.6493 46.6408 18.06 47.0701 18.34C47.5181 18.6013 48.0314 18.732 48.6101 18.732C49.2261 18.732 49.7394 18.6387 50.1501 18.452C50.5794 18.2467 50.9341 17.9947 51.2141 17.696C51.5128 17.3787 51.7461 17.024 51.9141 16.632C52.0821 16.24 52.2221 15.848 52.3341 15.456L52.7261 14.056Z" fill="#111111"/>
<path d="M37.92 1.008H41.896L37.64 21H33.692L37.92 1.008Z" fill="#111111"/>
<path d="M28.7225 0.678001H33.2485L14.8965 46.992H10.4325L28.7225 0.678001Z" fill="#8F8F8F"/>
<path d="M19.236 0.678001H23.762L5.41 46.992H0.945999L19.236 0.678001Z" fill="#8F8F8F"/>
<path d="M108.812 40.148C108.812 40.5773 108.868 40.988 108.98 41.38C109.111 41.772 109.298 42.1173 109.54 42.416C109.783 42.7147 110.082 42.9573 110.436 43.144C110.791 43.312 111.202 43.396 111.668 43.396C112.415 43.396 113.05 43.2 113.572 42.808C114.114 42.3973 114.552 41.8933 114.888 41.296C115.243 40.68 115.504 40.0173 115.672 39.308C115.84 38.5987 115.924 37.936 115.924 37.32C115.924 36.3493 115.7 35.5747 115.252 34.996C114.823 34.4173 114.076 34.128 113.012 34.128C112.284 34.128 111.65 34.3333 111.108 34.744C110.586 35.136 110.156 35.6307 109.82 36.228C109.484 36.8253 109.232 37.4787 109.064 38.188C108.896 38.8787 108.812 39.532 108.812 40.148ZM104.836 40.148C104.836 38.916 105.023 37.7587 105.396 36.676C105.788 35.5747 106.339 34.6133 107.048 33.792C107.776 32.9707 108.654 32.3267 109.68 31.86C110.707 31.3747 111.864 31.132 113.152 31.132C114.142 31.132 115.047 31.2627 115.868 31.524C116.708 31.7667 117.427 32.14 118.024 32.644C118.622 33.148 119.079 33.7827 119.396 34.548C119.732 35.3133 119.9 36.2187 119.9 37.264C119.9 38.5333 119.704 39.728 119.312 40.848C118.939 41.9493 118.388 42.9107 117.66 43.732C116.932 44.5533 116.046 45.1973 115 45.664C113.974 46.1307 112.798 46.364 111.472 46.364C109.456 46.364 107.842 45.8507 106.628 44.824C105.434 43.7787 104.836 42.22 104.836 40.148Z" fill="#8F8F8F"/>
<path d="M103.106 29.284H99.1022L99.8302 26.008H103.834L103.106 29.284ZM98.6542 31.524H102.658L99.5782 46H95.6022L98.6542 31.524Z" fill="#8F8F8F"/>
<path d="M85.989 34.128C85.2423 34.128 84.589 34.324 84.029 34.716C83.4876 35.108 83.0396 35.6027 82.685 36.2C82.3303 36.7973 82.069 37.4507 81.901 38.16C81.733 38.8693 81.649 39.5413 81.649 40.176C81.649 40.6053 81.705 41.016 81.817 41.408C81.9476 41.8 82.125 42.1453 82.349 42.444C82.5916 42.724 82.8903 42.9573 83.245 43.144C83.5996 43.312 84.0103 43.396 84.477 43.396C85.2236 43.396 85.8676 43.2 86.409 42.808C86.9503 42.3973 87.3983 41.884 87.753 41.268C88.1263 40.652 88.397 39.9893 88.565 39.28C88.7516 38.552 88.845 37.88 88.845 37.264C88.845 36.312 88.6116 35.556 88.145 34.996C87.6783 34.4173 86.9596 34.128 85.989 34.128ZM87.585 44.208L87.529 44.152C87.081 44.936 86.465 45.5053 85.681 45.86C84.9156 46.196 84.085 46.364 83.189 46.364C81.4343 46.364 80.0716 45.86 79.101 44.852C78.149 43.8253 77.673 42.4347 77.673 40.68C77.673 39.4853 77.8316 38.3187 78.149 37.18C78.4663 36.0413 78.9516 35.024 79.605 34.128C80.2583 33.232 81.0796 32.5133 82.069 31.972C83.0583 31.412 84.225 31.132 85.569 31.132C86.409 31.132 87.2116 31.3187 87.977 31.692C88.761 32.0653 89.3116 32.6533 89.629 33.456H89.685L91.281 26.008H95.257L91.029 46H87.193L87.585 44.208Z" fill="#8F8F8F"/>
<path d="M72.2598 46H68.4518L68.8998 43.984H68.8438C67.5558 45.5707 65.8665 46.364 63.7758 46.364C60.9571 46.364 59.5478 45.076 59.5478 42.5C59.5478 42.3507 59.5571 42.164 59.5758 41.94C59.6131 41.6973 59.6505 41.4547 59.6878 41.212C59.7438 40.9693 59.7905 40.7453 59.8278 40.54C59.8838 40.316 59.9305 40.1387 59.9678 40.008L61.7598 31.524H65.7358L63.9718 40.008C63.9345 40.12 63.8971 40.26 63.8598 40.428C63.8411 40.5773 63.8131 40.736 63.7758 40.904C63.7571 41.072 63.7385 41.24 63.7198 41.408C63.7198 41.5573 63.7198 41.6787 63.7198 41.772C63.7198 42.2013 63.9158 42.556 64.3078 42.836C64.7185 43.116 65.1571 43.256 65.6238 43.256C66.2211 43.256 66.7438 43.144 67.1918 42.92C67.6585 42.6773 68.0505 42.3693 68.3678 41.996C68.7038 41.6227 68.9745 41.1933 69.1798 40.708C69.4038 40.2227 69.5718 39.728 69.6838 39.224L71.3078 31.524H75.2838L72.2598 46Z" fill="#8F8F8F"/>
<path d="M54.8965 31.524H57.7525L57.1365 34.184H54.3085L52.8245 41.38C52.7872 41.5293 52.7592 41.6693 52.7405 41.8C52.7218 41.912 52.7125 41.996 52.7125 42.052C52.7125 42.3133 52.7498 42.5187 52.8245 42.668C52.9178 42.7987 53.0298 42.9013 53.1605 42.976C53.2912 43.0507 53.4312 43.0973 53.5805 43.116C53.7485 43.116 53.9072 43.116 54.0565 43.116C54.5418 43.116 55.0178 43.088 55.4845 43.032L54.8125 46.084C54.4018 46.1213 53.9912 46.1493 53.5805 46.168C53.1698 46.2053 52.7498 46.224 52.3205 46.224C51.8538 46.224 51.3872 46.1773 50.9205 46.084C50.4725 46.0093 50.0618 45.8693 49.6885 45.664C49.3338 45.44 49.0445 45.1413 48.8205 44.768C48.6152 44.3947 48.5218 43.9093 48.5405 43.312C48.5405 43.1253 48.5592 42.92 48.5965 42.696C48.6338 42.4533 48.6805 42.2013 48.7365 41.94L50.3605 34.184H47.7565L48.3725 31.524H50.9205L51.8165 27.128H55.7925L54.8965 31.524Z" fill="#8F8F8F"/>
<path d="M41.049 35.752C41.0303 35.136 40.8436 34.66 40.489 34.324C40.153 33.9693 39.593 33.792 38.809 33.792C38.0996 33.792 37.5116 33.904 37.045 34.128C36.597 34.3333 36.373 34.6973 36.373 35.22C36.373 35.5373 36.5036 35.808 36.765 36.032C37.045 36.256 37.521 36.4707 38.193 36.676L40.181 37.32C40.7223 37.488 41.217 37.684 41.665 37.908C42.1316 38.132 42.533 38.412 42.869 38.748C43.2236 39.0653 43.4943 39.448 43.681 39.896C43.8863 40.344 43.989 40.8667 43.989 41.464C43.989 42.36 43.7836 43.1253 43.373 43.76C42.981 44.376 42.4583 44.88 41.805 45.272C41.1516 45.664 40.4143 45.944 39.593 46.112C38.7716 46.28 37.941 46.364 37.101 46.364C36.3916 46.364 35.673 46.2893 34.945 46.14C34.217 45.9907 33.5543 45.748 32.957 45.412C32.3783 45.0573 31.9023 44.6 31.529 44.04C31.1556 43.4613 30.969 42.7427 30.969 41.884V41.296H34.637V41.772C34.637 42.108 34.721 42.3973 34.889 42.64C35.057 42.8827 35.2716 43.088 35.533 43.256C35.813 43.4053 36.121 43.5267 36.457 43.62C36.8116 43.6947 37.157 43.732 37.493 43.732C37.7916 43.732 38.0903 43.704 38.389 43.648C38.6876 43.592 38.9583 43.4987 39.201 43.368C39.4436 43.2187 39.6396 43.0413 39.789 42.836C39.9383 42.612 40.013 42.332 40.013 41.996C40.013 41.492 39.8823 41.1373 39.621 40.932C39.3596 40.7267 39.0143 40.5493 38.585 40.4L35.533 39.42C35.029 39.252 34.581 39.0747 34.189 38.888C33.8156 38.7013 33.489 38.468 33.209 38.188C32.9476 37.908 32.7423 37.572 32.593 37.18C32.4623 36.788 32.397 36.3027 32.397 35.724C32.397 34.8653 32.593 34.1467 32.985 33.568C33.3956 32.9893 33.9183 32.5227 34.553 32.168C35.1876 31.7947 35.8783 31.5333 36.625 31.384C37.3903 31.216 38.1183 31.132 38.809 31.132C39.593 31.132 40.349 31.1973 41.077 31.328C41.805 31.4587 42.4396 31.7013 42.981 32.056C43.541 32.392 43.9796 32.8587 44.297 33.456C44.6143 34.0533 44.7636 34.8187 44.745 35.752H41.049Z" fill="#8F8F8F"/>
<path d="M22.56 41.688H26.984L26.06 46H21.664L22.56 41.688Z" fill="#8F8F8F"/>
</svg>
